<svg xmlns="http://www.w3.org/2000/svg" width="4713.91" height="1422.965" viewBox="0 0 942.782 284.593">
  <defs>
    <style>
      .cls-1 {
        fill: #0080ff;
        fill-rule: evenodd;
      }
    </style>
  </defs>
  <path id="pushie" class="cls-1" d="M506.952,542.827H567.01V463.579h1.172c7.471,19.629,25.049,31.494,48.487,31.494,40.283,0,62.7-30.469,62.7-84.375v-0.146c0-54.2-22.705-84.229-63.428-84.229-22.851,0-39.99,12.158-47.607,32.666H567.01v-29.15H506.952V542.827Zm85.693-96.094c-15.82,0-25.928-13.33-25.928-35.888V410.7c0-22.7,10.254-36.035,25.928-36.035,15.528,0,25.781,13.33,25.781,35.889V410.7C618.426,432.964,608.319,446.733,592.645,446.733ZM745.4,495.073c24.463,0,41.016-11.719,48.926-33.545H795.5v30.03h60.058V329.839H795.5v90.82c0,15.088-8.643,26.074-22.852,26.074-15.088,0-22.7-9.961-22.7-26.22V329.839H689.882V433.7C689.882,472.515,709.8,495.073,745.4,495.073Zm200.215,0c46.875,0,78.226-21.679,78.226-56.543v-0.146c0-24.463-15.68-38.086-50.54-44.531l-29.3-5.42c-14.649-2.784-18.75-6.006-18.75-11.719v-0.147c0-6.884,7.177-10.986,18.164-10.986,12.89,0,20.068,7.178,20.947,14.795l0.146,1.318H1019v-1.025c0-29.443-25.486-54.346-75.583-54.346-47.022,0-75.586,20.069-75.586,53.613v0.147c0,25.049,16.992,42.187,49.072,48.047l29.3,5.42c13.33,2.49,18.164,5.859,18.164,11.719v0.146c0,6.445-7.178,10.4-18.75,10.4-13.477,0-20.8-5.566-23.145-14.941l-0.293-1.172H864.169l0.146,1.318C867.977,473.247,894.637,495.073,945.614,495.073Zm87.426-3.515h60.05V400.737c0-15.088,8.65-26.074,22.86-26.074,15.08,0,22.7,9.961,22.7,26.221v90.674h60.06V387.7c0-38.818-19.92-61.377-55.52-61.377-24.46,0-41.01,11.719-48.92,33.545h-1.18V280.181h-60.05V491.558Zm210.61-176.221c16.85,0,29.74-13.037,29.74-28.565s-12.89-28.564-29.74-28.564-29.74,13.037-29.74,28.564S1226.81,315.337,1243.65,315.337Zm-30.03,176.221h60.06V329.839h-60.06V491.558Zm155.39,3.515c56.25,0,74.71-32.959,79.54-54.053l0.44-1.9h-53.46l-0.15.44c-1.61,4.687-9.38,14.209-25.2,14.209-16.4,0-26.36-10.987-26.95-29.59h106.5V407.183c0-49.219-32.23-80.86-82.62-80.86-50.54,0-82.47,31.641-82.47,84.229V410.7C1284.64,463.286,1316.57,495.073,1369.01,495.073Zm-0.29-127.441c13.04,0,22.12,8.2,24.76,22.558h-49.52C1346.6,375.835,1355.68,367.632,1368.72,367.632Z" transform="translate(-506.938 -258.219)"/>
</svg>
